<svg width="226" height="90" viewBox="0 0 226 90" fill="none" xmlns="http://www.w3.org/2000/svg">
<rect x="53.406" y="53.4076" width="1.28395" height="169.1" transform="rotate(-90 53.406 53.4076)" fill="#C4C4C4" stroke="white" stroke-width="1.28395"/>
<path d="M54.204 37.9507H56.14V29.9827L62.316 37.9507H63.964V26.7507H62.028V34.4947L56.028 26.7507H54.204V37.9507ZM65.6659 37.9507H67.6819L68.8339 35.2467H74.1299L75.2659 37.9507H77.3459L72.4179 26.6707H70.5939L65.6659 37.9507ZM69.5539 33.5027L71.4739 29.0227L73.4099 33.5027H69.5539ZM69.6019 25.1347C70.0979 25.5027 70.7219 25.6947 71.5059 25.6947C72.2899 25.6947 72.9299 25.5027 73.4259 25.1347C73.9219 24.7507 74.2099 24.2227 74.2739 23.5507H72.8979C72.6899 24.0787 72.2259 24.3507 71.5059 24.3507C70.7859 24.3507 70.3219 24.0787 70.1139 23.5507H68.7379C68.8019 24.2227 69.0899 24.7507 69.6019 25.1347ZM79.2665 37.9507H81.2025V29.9507L84.7065 35.1987H84.7705L88.3065 29.9187V37.9507H90.2745V26.7507H88.1785L84.7705 32.0467L81.3625 26.7507H79.2665V37.9507ZM97.954 37.9507H99.922V34.7027L101.666 32.9107L105.49 37.9507H107.89L103.01 31.5667L107.682 26.7507H105.25L99.922 32.3827V26.7507H97.954V37.9507ZM109.675 37.9507H111.643V26.7507H109.675V37.9507ZM114.641 37.9507H116.577V29.9827L122.753 37.9507H124.401V26.7507H122.465V34.4947L116.465 26.7507H114.641V37.9507ZM127.282 37.9507H129.25V33.2307H134.594V37.9507H136.562V26.7507H134.594V31.4067H129.25V26.7507H127.282V37.9507ZM144.235 37.9507H146.171V29.9827L152.347 37.9507H153.995V26.7507H152.059V34.4947L146.059 26.7507H144.235V37.9507ZM157.261 36.4787C158.349 37.5827 159.757 38.1427 161.485 38.1427C163.245 38.1427 164.797 37.5667 166.157 36.3987V31.6947H161.389V33.4067H164.253V35.5027C163.501 36.0627 162.589 36.3507 161.549 36.3507C160.413 36.3507 159.501 35.9667 158.781 35.2147C158.093 34.4627 157.741 33.5187 157.741 32.3507V32.3187C157.741 31.2307 158.093 30.3027 158.781 29.5347C159.485 28.7507 160.349 28.3667 161.373 28.3667C162.525 28.3667 163.565 28.7667 164.509 29.5667L165.757 28.0787C164.557 27.0707 163.133 26.5587 161.453 26.5587C159.789 26.5587 158.397 27.1347 157.293 28.2707C156.221 29.3907 155.677 30.7507 155.677 32.3507V32.3827C155.677 34.0307 156.205 35.4067 157.261 36.4787ZM168.72 37.9507H170.688V33.2307H176.032V37.9507H178V26.7507H176.032V31.4067H170.688V26.7507H168.72V37.9507ZM180.988 37.9507H182.956V26.7507H180.988V37.9507ZM185.954 37.9507H194.338V36.1907H187.922V33.1827H193.538V31.4227H187.922V28.5107H194.258V26.7507H185.954V37.9507ZM187.394 25.6787H188.898L190.13 24.6067L191.378 25.6787H192.914L191.042 23.3267H189.25L187.394 25.6787ZM189.218 41.1827H191.09V39.2627H189.218V41.1827ZM196.673 37.9507H198.609V29.9507L202.113 35.1987H202.177L205.713 29.9187V37.9507H207.681V26.7507H205.585L202.177 32.0467L198.769 26.7507H196.673V37.9507Z" fill="white"/>
<path d="M7.808 61.2435C11.008 63.6115 15.104 64.7635 20.16 64.7635C25.216 64.7635 29.376 63.6115 32.512 61.3075C35.776 58.8755 37.44 55.6115 37.44 51.5795V51.4515C37.44 46.9075 35.008 43.3875 30.208 40.8915C33.984 38.5875 35.904 35.3235 35.904 31.0995V30.9715C35.904 27.4515 34.496 24.5715 31.616 22.2035C28.608 19.8355 24.832 18.6835 20.16 18.6835C15.488 18.6835 11.712 19.8995 8.768 22.2675C5.888 24.5715 4.416 27.4515 4.416 30.9715V31.0995C4.416 35.3235 6.336 38.5875 10.112 40.8915C5.312 43.1315 2.88 46.7155 2.88 51.7075V51.8355C2.88 55.6755 4.544 58.8115 7.808 61.2435ZM24.832 36.0915C23.616 37.1155 22.08 37.6275 20.16 37.6275C18.24 37.6275 16.704 37.1155 15.488 36.0275C14.336 35.0035 13.76 33.7235 13.76 32.1235V31.9955C13.76 30.5235 14.336 29.3075 15.424 28.3475C16.64 27.3235 18.176 26.8115 20.16 26.8115C22.08 26.8115 23.68 27.3235 24.896 28.4115C25.984 29.3715 26.56 30.5875 26.56 32.0595V32.1875C26.56 33.7875 25.984 35.0675 24.832 36.0915ZM25.856 55.0355C24.448 56.1235 22.528 56.6355 20.16 56.6355C17.792 56.6355 15.936 56.0595 14.464 54.9715C13.12 53.9475 12.416 52.6675 12.416 51.0675V50.9395C12.416 49.2115 13.12 47.8675 14.592 46.9075C16 45.9475 17.856 45.4355 20.16 45.4355C22.464 45.4355 24.32 45.9475 25.728 46.9075C27.2 47.8675 27.904 49.2115 27.904 50.9395V51.0675C27.904 52.6675 27.2 54.0115 25.856 55.0355Z" fill="white"/>
</svg>
