<svg width="227" height="90" viewBox="0 0 227 90" fill="none" xmlns="http://www.w3.org/2000/svg">
<rect x="168.282" y="53.4076" width="1.28395" height="56.9763" transform="rotate(-90 168.282 53.4076)" fill="#C4C4C4" stroke="white" stroke-width="1.28395"/>
<path d="M169.101 36.8787C169.933 37.7107 171.085 38.1267 172.573 38.1267C174.077 38.1267 175.245 37.7107 176.077 36.8627C176.957 35.9827 177.389 34.7347 177.389 33.1027V26.7507H175.421V33.1987C175.421 34.2067 175.165 34.9907 174.669 35.5187C174.173 36.0467 173.485 36.3027 172.605 36.3027C171.709 36.3027 171.021 36.0307 170.525 35.4867C170.029 34.9267 169.773 34.1427 169.773 33.1187V26.7507H167.805V33.1987C167.805 34.7987 168.237 36.0307 169.101 36.8787ZM179.339 36.3187C180.667 37.5187 182.235 38.1107 184.011 38.1107C185.211 38.1107 186.171 37.8227 186.891 37.2307C187.643 36.6227 188.011 35.8067 188.011 34.7667V34.7347C188.011 33.8387 187.707 33.1347 187.115 32.6067C186.555 32.1427 185.659 31.7587 184.427 31.4547C183.355 31.1987 182.651 30.9427 182.283 30.7027C181.931 30.4627 181.755 30.1267 181.755 29.6947V29.6627C181.755 29.2787 181.915 28.9587 182.235 28.7187C182.571 28.4627 183.019 28.3347 183.579 28.3347C184.571 28.3347 185.579 28.7187 186.619 29.4867L187.675 27.9987C186.507 27.0547 185.147 26.5907 183.611 26.5907C182.491 26.5907 181.579 26.8947 180.859 27.4867C180.139 28.0947 179.787 28.8787 179.787 29.8387V29.8707C179.787 30.8467 180.107 31.5827 180.763 32.0947C181.291 32.5267 182.219 32.8947 183.515 33.2147C184.523 33.4547 185.195 33.6947 185.563 33.9507C185.883 34.1907 186.043 34.5107 186.043 34.9267V34.9587C186.043 35.3747 185.867 35.7107 185.515 35.9667C185.147 36.2387 184.667 36.3667 184.059 36.3667C182.827 36.3667 181.643 35.8867 180.523 34.9107L179.339 36.3187ZM190.325 37.9507H198.709V36.1907H192.293V33.1827H197.909V31.4227H192.293V28.5107H198.629V26.7507H190.325V37.9507ZM201.044 37.9507H203.012V34.0467H205.476L208.228 37.9507H210.564L207.54 33.7107C209.316 33.1987 210.196 32.0627 210.196 30.3187V30.2867C210.196 29.3107 209.892 28.5107 209.268 27.8707C208.5 27.1187 207.428 26.7507 206.036 26.7507H201.044V37.9507ZM203.012 32.3027V28.5427H205.876C207.428 28.5427 208.196 29.1667 208.196 30.3987V30.4307C208.196 30.9907 207.988 31.4547 207.572 31.7907C207.156 32.1267 206.596 32.3027 205.892 32.3027H203.012ZM211.854 36.3187C213.182 37.5187 214.75 38.1107 216.526 38.1107C217.726 38.1107 218.686 37.8227 219.406 37.2307C220.158 36.6227 220.526 35.8067 220.526 34.7667V34.7347C220.526 33.8387 220.222 33.1347 219.63 32.6067C219.07 32.1427 218.174 31.7587 216.942 31.4547C215.87 31.1987 215.166 30.9427 214.798 30.7027C214.446 30.4627 214.27 30.1267 214.27 29.6947V29.6627C214.27 29.2787 214.43 28.9587 214.75 28.7187C215.086 28.4627 215.534 28.3347 216.094 28.3347C217.086 28.3347 218.094 28.7187 219.134 29.4867L220.19 27.9987C219.022 27.0547 217.662 26.5907 216.126 26.5907C215.006 26.5907 214.094 26.8947 213.374 27.4867C212.654 28.0947 212.302 28.8787 212.302 29.8387V29.8707C212.302 30.8467 212.622 31.5827 213.278 32.0947C213.806 32.5267 214.734 32.8947 216.03 33.2147C217.038 33.4547 217.71 33.6947 218.078 33.9507C218.398 34.1907 218.558 34.5107 218.558 34.9267V34.9587C218.558 35.3747 218.382 35.7107 218.03 35.9667C217.662 36.2387 217.182 36.3667 216.574 36.3667C215.342 36.3667 214.158 35.8867 213.038 34.9107L211.854 36.3187Z" fill="white"/>
<path d="M11.9467 64.1235H21.6747V19.0035H14.9547L2.09069 22.8435L4.13869 30.9075L11.9467 28.9875V64.1235ZM30.3067 58.1715C34.9787 62.6515 40.6107 64.8915 47.0747 64.8915C52.2587 64.8915 56.3547 63.4835 59.4267 60.6675C62.5627 57.9155 64.0987 54.1395 64.0987 49.4035V49.2755C64.0987 44.4755 62.5627 40.8275 59.5547 38.3315C56.8027 36.0915 53.0907 34.9395 48.4187 34.9395C46.5627 34.9395 44.5787 35.1955 42.5307 35.7075L43.0427 27.9635H62.1147V19.3235H34.5947L33.3147 41.4035L39.0107 45.1795C41.6347 44.0915 44.1307 43.5155 46.4987 43.5155C48.8667 43.5155 50.7867 44.0275 52.1947 45.1155C53.6667 46.2035 54.4347 47.7395 54.4347 49.5955V49.7235C54.4347 53.8835 51.9387 55.9315 46.9467 55.9315C43.4267 55.9315 39.8427 54.3315 36.2587 51.0675L30.3067 58.1715ZM73.2432 64.1235H82.9072V35.0675L95.3872 54.0115H95.6432L108.251 34.8755V64.1235H118.043V19.3235H107.419L95.6432 38.2675L83.8672 19.3235H73.2432V64.1235Z" fill="white"/>
<path d="M145.036 19.6515H148.444V15.3315H152.788V12.0195H148.444V7.69953H145.036V12.0195H140.692V15.3315H145.036V19.6515Z" fill="white"/>
</svg>
