<svg width="16" height="10" viewBox="0 0 16 10" fill="none" xmlns="http://www.w3.org/2000/svg">
<path d="M14.1438 10H12.5499C11.6122 10 11.0742 9.00064 10.5998 8.1189C10.2566 7.48133 9.86784 6.75879 9.47776 6.75879H6.52144C6.0736 6.75879 5.68384 7.48496 5.30688 8.18738C4.82848 9.0785 4.33392 10 3.4496 10H1.856C0.83264 10 6.5918e-08 9.21351 6.5918e-08 8.24635V1.7538C6.5918e-08 0.786792 0.83248 -1.66102e-07 1.856 -1.66102e-07H14.144C15.1674 -1.66102e-07 16 0.786792 16 1.7538V8.24635C15.9998 9.21336 15.1674 10 14.1438 10ZM6.52144 6.15388H9.47808C10.2608 6.15388 10.7026 6.9753 11.1706 7.84479C11.5806 8.60694 12.0048 9.39524 12.5501 9.39524H14.144C14.8144 9.39524 15.36 8.87983 15.36 8.24635V1.7538C15.36 1.12032 14.8146 0.604759 14.144 0.604759H1.856C1.1856 0.604759 0.64 1.12032 0.64 1.7538V8.24635C0.64 8.87968 1.18544 9.39524 1.856 9.39524H3.4496C3.94096 9.39524 4.34528 8.64216 4.736 7.91388C5.20032 7.04862 5.68048 6.15388 6.52144 6.15388Z" fill="#72BA41"/>
<path d="M3.8234 5.47144C2.80884 5.47144 1.9834 4.6913 1.9834 3.73276C1.9834 2.77391 2.80884 1.99408 3.8234 1.99408C4.83796 1.99408 5.6634 2.77406 5.6634 3.73276C5.6634 4.6913 4.83796 5.47144 3.8234 5.47144ZM3.8234 2.59884C3.16164 2.59884 2.6234 3.10744 2.6234 3.73276C2.6234 4.35793 3.16164 4.86668 3.8234 4.86668C4.48516 4.86668 5.0234 4.35793 5.0234 3.73276C5.0234 3.10759 4.48516 2.59884 3.8234 2.59884Z" fill="#72BA41"/>
<path d="M12.2429 3.37018C12.0662 3.37018 11.9229 3.23471 11.9229 3.0678V2.37202C11.9229 2.20511 12.0662 2.06965 12.2429 2.06965C12.4195 2.06965 12.5629 2.20511 12.5629 2.37202V3.0678C12.5629 3.23456 12.4197 3.37018 12.2429 3.37018Z" fill="#72BA41"/>
<path d="M12.2429 5.39589C12.0662 5.39589 11.9229 5.26042 11.9229 5.09351V4.39773C11.9229 4.23067 12.0662 4.09535 12.2429 4.09535C12.4195 4.09535 12.5629 4.23067 12.5629 4.39773V5.09351C12.5629 5.26042 12.4197 5.39589 12.2429 5.39589Z" fill="#72BA41"/>
<path d="M11.5837 4.03516H10.8473C10.6707 4.03516 10.5273 3.89969 10.5273 3.73278C10.5273 3.56586 10.6707 3.4304 10.8473 3.4304H11.5837C11.7603 3.4304 11.9037 3.56586 11.9037 3.73278C11.9037 3.89969 11.7605 4.03516 11.5837 4.03516Z" fill="#72BA41"/>
<path d="M13.6393 4.03513H12.903C12.7264 4.03513 12.583 3.89967 12.583 3.73275C12.583 3.56584 12.7264 3.43037 12.903 3.43037H13.6393C13.816 3.43037 13.9593 3.56584 13.9593 3.73275C13.9593 3.89967 13.816 4.03513 13.6393 4.03513Z" fill="#72BA41"/>
</svg>
