<svg width="290" height="104" viewBox="0 0 290 104" fill="none" xmlns="http://www.w3.org/2000/svg">
<rect x="54.295" y="67.4073" width="1.28394" height="232.856" transform="rotate(-90 54.295 67.4073)" fill="#C4C4C4" stroke="white" stroke-width="1.28394"/>
<path d="M55.093 51.9507H57.029V43.9827L63.205 51.9507H64.853V40.7507H62.917V48.4947L56.917 40.7507H55.093V51.9507ZM67.7337 51.9507H69.7017V48.3507H71.9257C73.2217 48.3507 74.2777 48.0307 75.0937 47.3747C75.9737 46.6867 76.4057 45.7267 76.4057 44.5267V44.4947C76.4057 43.3587 76.0217 42.4627 75.2697 41.7747C74.4857 41.0867 73.4457 40.7507 72.1497 40.7507H67.7337V51.9507ZM69.7017 46.5747V42.5427H71.9897C72.7417 42.5427 73.3177 42.7187 73.7497 43.0547C74.1817 43.4067 74.4057 43.9027 74.4057 44.5427V44.5747C74.4057 45.1667 74.1817 45.6467 73.7497 46.0147C73.3177 46.3827 72.7257 46.5747 71.9897 46.5747H69.7017ZM78.4212 51.9507H80.3892V47.2307H85.7332V51.9507H87.7012V40.7507H85.7332V45.4067H80.3892V40.7507H78.4212V51.9507ZM95.3743 51.9507H103.23V50.1587H97.3423V40.7507H95.3743V51.9507ZM113.377 49.1667C112.657 49.9347 111.761 50.3187 110.657 50.3187C109.553 50.3187 108.641 49.9347 107.921 49.1507C107.201 48.3987 106.849 47.4547 106.849 46.3507V46.3187C106.849 45.2147 107.201 44.2707 107.905 43.5187C108.625 42.7507 109.521 42.3667 110.625 42.3667C111.729 42.3667 112.641 42.7507 113.361 43.5347C114.081 44.3027 114.433 45.2467 114.433 46.3507V46.3827C114.433 47.4867 114.081 48.4147 113.377 49.1667ZM115.553 43.1027C116.305 42.6707 116.673 41.8707 116.673 40.7347H115.393C115.425 41.4227 115.249 41.9347 114.881 42.2707L114.865 42.2547C113.761 41.1187 112.353 40.5587 110.657 40.5587C108.961 40.5587 107.553 41.1347 106.433 42.2707C105.329 43.3907 104.785 44.7507 104.785 46.3507V46.3827C104.785 47.9827 105.329 49.3427 106.417 50.4467C107.521 51.5827 108.929 52.1427 110.625 52.1427C112.321 52.1427 113.729 51.5667 114.849 50.4307C115.953 49.3107 116.497 47.9507 116.497 46.3507V46.3187C116.497 45.1027 116.177 44.0307 115.553 43.1027ZM109.585 39.6787H111.041L113.009 37.8387L111.249 37.0547L109.585 39.6787ZM118.874 51.9507H120.81V43.9827L126.986 51.9507H128.634V40.7507H126.698V48.4947L120.698 40.7507H118.874V51.9507ZM136.312 51.9507H138.248V43.9827L144.424 51.9507H146.072V40.7507H144.136V48.4947L138.136 40.7507H136.312V51.9507ZM148.952 51.9507H150.92V47.2307H156.264V51.9507H158.232V40.7507H156.264V45.4067H150.92V40.7507H148.952V51.9507ZM160.149 51.9507H162.165L163.317 49.2467H168.613L169.749 51.9507H171.829L166.901 40.6707H165.077L160.149 51.9507ZM164.037 47.5027L165.957 43.0227L167.893 47.5027H164.037ZM163.237 39.6947H164.741L165.973 38.6227L167.221 39.6947H168.757L166.885 37.3427H165.093L163.237 39.6947ZM167.797 37.9827H169.253L171.221 36.1427L169.461 35.3587L167.797 37.9827ZM176.501 51.9507H178.485V42.5747H182.037V40.7507H172.949V42.5747H176.501V51.9507ZM191.023 52.0307H192.767L197.407 40.7507H195.279L191.919 49.3587L188.543 40.7507H186.367L191.023 52.0307ZM199.439 51.9507H201.407V40.7507H199.439V51.9507ZM204.406 51.9507H212.79V50.1907H206.374V47.1827H211.99V45.4227H206.374V42.5107H212.71V40.7507H204.406V51.9507ZM205.846 39.6787H207.35L208.582 38.6067L209.83 39.6787H211.366L209.494 37.3267H207.702L205.846 39.6787ZM207.67 55.1827H209.542V53.2627H207.67V55.1827ZM217.876 51.9507H219.86V42.5747H223.412V40.7507H214.324V42.5747H217.876V51.9507ZM230.296 51.9507H232.232V43.9827L238.408 51.9507H240.056V40.7507H238.12V48.4947L232.12 40.7507H230.296V51.9507ZM241.758 51.9507H243.774L244.926 49.2467H250.222L251.358 51.9507H253.438L248.51 40.6707H246.686L241.758 51.9507ZM245.646 47.5027L247.566 43.0227L249.502 47.5027H245.646ZM255.359 51.9507H257.295V43.9507L260.799 49.1987H260.863L264.399 43.9187V51.9507H266.367V40.7507H264.271L260.863 46.0467L257.455 40.7507H255.359V51.9507Z" fill="white"/>
<path d="M11.1526 16H12.8886V7.796H15.9966V6.2H8.04457V7.796H11.1526V16ZM18.2835 14.684C19.2495 15.678 20.4815 16.168 21.9655 16.168C23.4495 16.168 24.6815 15.664 25.6615 14.67C26.6275 13.69 27.1035 12.5 27.1035 11.1V11.072C27.1035 9.672 26.6275 8.482 25.6755 7.516C24.7095 6.522 23.4775 6.032 21.9935 6.032C20.5095 6.032 19.2775 6.536 18.2975 7.53C17.3315 8.51 16.8555 9.7 16.8555 11.1V11.128C16.8555 12.528 17.3315 13.718 18.2835 14.684ZM24.3735 13.564C23.7435 14.236 22.9595 14.572 21.9935 14.572C21.0275 14.572 20.2295 14.236 19.5995 13.55C18.9695 12.892 18.6615 12.066 18.6615 11.1V11.072C18.6615 10.106 18.9695 9.28 19.5855 8.622C20.2155 7.95 20.9995 7.614 21.9655 7.614C22.9315 7.614 23.7295 7.95 24.3595 8.636C24.9895 9.308 25.2975 10.134 25.2975 11.1V11.128C25.2975 12.094 24.9895 12.906 24.3735 13.564ZM29.184 16H30.906V12.85H32.852C33.986 12.85 34.91 12.57 35.624 11.996C36.394 11.394 36.772 10.554 36.772 9.504V9.476C36.772 8.482 36.436 7.698 35.778 7.096C35.092 6.494 34.182 6.2 33.048 6.2H29.184V16ZM30.906 11.296V7.768H32.908C33.566 7.768 34.07 7.922 34.448 8.216C34.826 8.524 35.022 8.958 35.022 9.518V9.546C35.022 10.064 34.826 10.484 34.448 10.806C34.07 11.128 33.552 11.296 32.908 11.296H30.906Z" fill="white"/>
<path d="M3.32107 71.1475C7.67307 76.3315 13.4971 78.8915 20.7931 78.8915C25.7211 78.8915 29.6251 77.4835 32.6331 74.7315C35.5131 72.0435 36.9211 68.5235 36.9211 64.2355V64.1075C36.9211 57.1315 32.8891 52.9075 24.8891 51.5635L36.2171 40.7475V33.3235H5.94507V41.7715H23.5451L12.8571 52.5235L14.3931 58.7955H18.4891C24.3131 58.7955 27.2571 60.7155 27.2571 64.4915V64.6195C27.2571 66.2835 26.6811 67.6275 25.4651 68.5875C24.3131 69.5475 22.7771 70.0595 20.9211 70.0595C16.8891 70.0595 13.3051 68.2675 10.1051 64.6835L3.32107 71.1475Z" fill="white"/>
</svg>
