<svg width="328" height="90" viewBox="0 0 328 90" fill="none" xmlns="http://www.w3.org/2000/svg">
<rect x="166.064" y="68.8151" width="1.28395" height="159.206" transform="rotate(-90 166.064 68.8151)" fill="#C4C4C4" stroke="white" stroke-width="1.28395"/>
<path d="M167.342 53.3582H171.518C173.262 53.3582 174.686 52.8142 175.822 51.7422C176.926 50.6862 177.47 49.3582 177.47 47.7582V47.7262C177.47 46.1422 176.926 44.8142 175.822 43.7582C174.686 42.6862 173.262 42.1582 171.518 42.1582H167.342V46.8462H166.142V48.6062H167.342V53.3582ZM172.11 48.6062V46.8462H169.31V43.9502H171.518C172.686 43.9502 173.63 44.3182 174.35 45.0382C175.054 45.7422 175.406 46.6542 175.406 47.7582V47.7902C175.406 48.8942 175.054 49.8062 174.35 50.4942C173.63 51.2142 172.686 51.5662 171.518 51.5662H169.31V48.6062H172.11ZM180.966 52.2862C181.798 53.1182 182.95 53.5342 184.438 53.5342C185.942 53.5342 187.11 53.1182 187.942 52.2702C188.822 51.3902 189.254 50.1422 189.254 48.5102V42.1582H187.286V48.6062C187.286 49.6142 187.03 50.3982 186.534 50.9262C186.038 51.4542 185.35 51.7102 184.47 51.7102C183.574 51.7102 182.886 51.4382 182.39 50.8942C181.894 50.3342 181.638 49.5502 181.638 48.5262V42.1582H179.67V48.6062C179.67 50.2062 180.102 51.4382 180.966 52.2862ZM183.158 38.9262C183.926 38.9262 184.31 39.1502 184.31 39.6142C184.31 39.9502 184.086 40.3342 183.654 40.7342H184.95C185.51 40.2542 185.782 39.7742 185.782 39.3102C185.782 38.9102 185.606 38.5902 185.238 38.3502C184.87 38.1102 184.342 37.9822 183.67 37.9662C183.59 37.9662 183.414 37.9822 183.158 37.9982V38.9262ZM197.185 51.8702C198.273 52.9902 199.633 53.5502 201.249 53.5502C203.009 53.5502 204.529 52.8942 205.793 51.5662L204.529 50.2862C203.505 51.2462 202.433 51.7262 201.313 51.7262C200.257 51.7262 199.377 51.3422 198.657 50.5582C197.969 49.8062 197.617 48.8622 197.617 47.7582V47.7262C197.617 46.6222 197.969 45.6782 198.673 44.9262C199.377 44.1582 200.257 43.7742 201.313 43.7742C202.401 43.7742 203.441 44.2382 204.449 45.1662L205.713 43.7102C204.497 42.5422 203.041 41.9662 201.329 41.9662C199.649 41.9662 198.273 42.5262 197.169 43.6622C196.097 44.7662 195.553 46.1422 195.553 47.7582V47.7902C195.553 49.4062 196.097 50.7662 197.185 51.8702ZM206.902 53.3582H208.918L210.07 50.6542H215.366L216.502 53.3582H218.582L213.654 42.0782H211.83L206.902 53.3582ZM210.79 48.9102L212.71 44.4302L214.646 48.9102H210.79ZM211.942 41.0702H213.446L215.494 39.5182L213.734 38.7502L211.942 41.0702ZM220.935 51.8702C222.023 52.9902 223.383 53.5502 224.999 53.5502C226.759 53.5502 228.279 52.8942 229.543 51.5662L228.279 50.2862C227.255 51.2462 226.183 51.7262 225.063 51.7262C224.007 51.7262 223.127 51.3422 222.407 50.5582C221.719 49.8062 221.367 48.8622 221.367 47.7582V47.7262C221.367 46.6222 221.719 45.6782 222.423 44.9262C223.127 44.1582 224.007 43.7742 225.063 43.7742C226.151 43.7742 227.191 44.2382 228.199 45.1662L229.463 43.7102C228.247 42.5422 226.791 41.9662 225.079 41.9662C223.399 41.9662 222.023 42.5262 220.919 43.6622C219.847 44.7662 219.303 46.1422 219.303 47.7582V47.7902C219.303 49.4062 219.847 50.7662 220.935 51.8702ZM237.723 53.3582H239.707V43.9822H243.259V42.1582H234.171V43.9822H237.723V53.3582ZM245.346 53.3582H247.314V48.6382H252.658V53.3582H254.626V42.1582H252.658V46.8142H247.314V42.1582H245.346V53.3582ZM257.503 53.3582H265.887V51.5982H259.471V48.5902H265.087V46.8302H259.471V43.9182H265.807V42.1582H257.503V53.3582ZM259.359 41.1182H260.863L262.095 40.0462L263.343 41.1182H264.879L263.007 38.7662H261.215L259.359 41.1182ZM263.663 37.5982C264.431 37.5982 264.815 37.8222 264.815 38.2862C264.815 38.6222 264.591 39.0062 264.159 39.4062H265.455C266.015 38.9262 266.287 38.4462 266.287 37.9822C266.287 37.5822 266.111 37.2622 265.743 37.0222C265.375 36.7822 264.847 36.6542 264.175 36.6382C264.095 36.6382 263.919 36.6542 263.663 36.6702V37.5982ZM273.018 53.3582H280.874V51.5662H274.986V42.1582H273.018V53.3582ZM283.42 51.8542C284.524 52.9902 285.932 53.5502 287.628 53.5502C289.324 53.5502 290.732 52.9742 291.852 51.8382C292.956 50.7182 293.5 49.3582 293.5 47.7582V47.7262C293.5 46.1262 292.956 44.7662 291.868 43.6622C290.764 42.5262 289.356 41.9662 287.66 41.9662C285.964 41.9662 284.556 42.5422 283.436 43.6782C282.332 44.7982 281.788 46.1582 281.788 47.7582V47.7902C281.788 49.3902 282.332 50.7502 283.42 51.8542ZM290.38 50.5742C289.66 51.3422 288.764 51.7262 287.66 51.7262C286.556 51.7262 285.644 51.3422 284.924 50.5582C284.204 49.8062 283.852 48.8622 283.852 47.7582V47.7262C283.852 46.6222 284.204 45.6782 284.908 44.9262C285.628 44.1582 286.524 43.7742 287.628 43.7742C288.732 43.7742 289.644 44.1582 290.364 44.9422C291.084 45.7102 291.436 46.6542 291.436 47.7582V47.7902C291.436 48.8942 291.084 49.8222 290.38 50.5742ZM294.918 53.3582H296.934L298.086 50.6542H303.382L304.518 53.3582H306.598L301.67 42.0782H299.846L294.918 53.3582ZM298.806 48.9102L300.726 44.4302L302.662 48.9102H298.806ZM299.83 56.5902H301.702V54.6702H299.83V56.5902ZM308.63 53.3582H310.598V42.1582H308.63V53.3582Z" fill="white"/>
<path d="M169.614 23.8274H171.598V14.4514H175.15V12.6274H166.062V14.4514H169.614V23.8274ZM186.645 15.2994C187.893 14.9954 188.517 14.1154 188.517 12.6274H187.237C187.269 13.3634 187.077 13.8914 186.645 14.2274V12.6274H184.677V19.0754C184.677 20.0834 184.421 20.8674 183.925 21.3954C183.429 21.9234 182.741 22.1794 181.861 22.1794C180.965 22.1794 180.277 21.9074 179.781 21.3634C179.285 20.8034 179.029 20.0194 179.029 18.9954V12.6274H177.061V19.0754C177.061 20.6754 177.493 21.9074 178.357 22.7554C179.189 23.5874 180.341 24.0034 181.829 24.0034C183.333 24.0034 184.501 23.5874 185.333 22.7394C186.213 21.8594 186.645 20.6114 186.645 18.9794V15.2994ZM180.853 27.0594H182.725V25.1394H180.853V27.0594ZM188.386 23.8274H190.402L191.554 21.1234H196.85L197.986 23.8274H200.066L195.138 12.5474H193.314L188.386 23.8274ZM192.274 19.3794L194.194 14.8994L196.13 19.3794H192.274ZM207.169 22.3554C208.257 23.4594 209.665 24.0194 211.393 24.0194C213.153 24.0194 214.705 23.4434 216.065 22.2754V17.5714H211.297V19.2834H214.161V21.3794C213.409 21.9394 212.497 22.2274 211.457 22.2274C210.321 22.2274 209.409 21.8434 208.689 21.0914C208.001 20.3394 207.649 19.3954 207.649 18.2274V18.1954C207.649 17.1074 208.001 16.1794 208.689 15.4114C209.393 14.6274 210.257 14.2434 211.281 14.2434C212.433 14.2434 213.473 14.6434 214.417 15.4434L215.665 13.9554C214.465 12.9474 213.041 12.4354 211.361 12.4354C209.697 12.4354 208.305 13.0114 207.201 14.1474C206.129 15.2674 205.585 16.6274 205.585 18.2274V18.2594C205.585 19.9074 206.113 21.2834 207.169 22.3554ZM217.668 23.8274H219.684L220.836 21.1234H226.132L227.268 23.8274H229.348L224.42 12.5474H222.596L217.668 23.8274ZM221.556 19.3794L223.476 14.8994L225.412 19.3794H221.556ZM231.268 23.8274H233.204V15.8274L236.708 21.0754H236.772L240.308 15.7954V23.8274H242.276V12.6274H240.18L236.772 17.9234L233.364 12.6274H231.268V23.8274ZM245.159 23.8274H253.543V22.0674H247.127V19.0594H252.743V17.2994H247.127V14.3874H253.463V12.6274H245.159V23.8274Z" fill="white"/>
<path d="M11.9266 64.1235H21.6546V19.0035H14.9346L2.07061 22.8435L4.11861 30.9075L11.9266 28.9875V64.1235ZM36.4306 58.2355C40.1426 62.6515 44.9426 64.8915 50.8306 64.8915C56.7186 64.8915 61.5186 62.6515 65.2946 58.1715C68.9426 53.8195 70.7986 48.3155 70.7986 41.7235V41.5955C70.7986 35.0035 68.9426 29.5635 65.2946 25.2115C61.5826 20.7955 56.7826 18.5555 50.9586 18.5555C45.0706 18.5555 40.2706 20.7955 36.4946 25.2755C32.8466 29.6275 30.9906 35.1315 30.9906 41.7235V41.8515C30.9906 48.4435 32.7826 53.9475 36.4306 58.2355ZM58.0626 51.9635C56.2706 54.6515 53.9026 55.9955 50.9586 55.9955C48.0146 55.9955 45.6466 54.6515 43.7906 51.8995C41.9986 49.2755 41.1026 45.8835 41.1026 41.7235V41.5955C41.1026 37.4355 41.9986 34.0435 43.7906 31.4195C45.5826 28.7955 47.9506 27.4515 50.8306 27.4515C53.7106 27.4515 56.1426 28.7955 57.9986 31.5475C59.7906 34.2355 60.6866 37.6275 60.6866 41.7235V41.8515C60.6866 46.0115 59.7906 49.3395 58.0626 51.9635ZM83.1806 58.2355C86.8926 62.6515 91.6926 64.8915 97.5806 64.8915C103.469 64.8915 108.269 62.6515 112.045 58.1715C115.693 53.8195 117.549 48.3155 117.549 41.7235V41.5955C117.549 35.0035 115.693 29.5635 112.045 25.2115C108.333 20.7955 103.533 18.5555 97.7086 18.5555C91.8206 18.5555 87.0206 20.7955 83.2446 25.2755C79.5966 29.6275 77.7406 35.1315 77.7406 41.7235V41.8515C77.7406 48.4435 79.5326 53.9475 83.1806 58.2355ZM104.813 51.9635C103.021 54.6515 100.653 55.9955 97.7086 55.9955C94.7646 55.9955 92.3966 54.6515 90.5406 51.8995C88.7486 49.2755 87.8526 45.8835 87.8526 41.7235V41.5955C87.8526 37.4355 88.7486 34.0435 90.5406 31.4195C92.3326 28.7955 94.7006 27.4515 97.5806 27.4515C100.461 27.4515 102.893 28.7955 104.749 31.5475C106.541 34.2355 107.437 37.6275 107.437 41.7235V41.8515C107.437 46.0115 106.541 49.3395 104.813 51.9635Z" fill="white"/>
<path d="M141.718 22.2194H145.126V17.8994H149.47V14.5874H145.126V10.2674H141.718V14.5874H137.374V17.8994H141.718V22.2194Z" fill="white"/>
</svg>
